<svg xmlns="http://www.w3.org/2000/svg" viewBox="0 0 512 512" width="512" height="512">
  <rect width="512" height="512" rx="96" fill="#0f1115"/>
  <g transform="translate(256 232)" fill="none" stroke="#e74c3c" stroke-width="14" stroke-linecap="round">
    <circle r="150" stroke-opacity="0.18"/>
    <circle r="116" stroke-opacity="0.28"/>
    <circle r="82" stroke-opacity="0.45"/>
  </g>
  <g transform="translate(256 232)">
    <polygon points="0,-138 34,-54 -34,-54" fill="#e74c3c"/>
    <circle r="15" fill="#e74c3c"/>
  </g>
  <g transform="translate(96.00 452) scale(0.11536 -0.11536)">
    <path fill="#e2e8f0" d="M498 468V18Q498 -45 472.0 -94.5Q446 -144 399.0 -172.0Q352 -200 292 -200H98V-138H292Q353 -138 391.5 -94.0Q430 -50 430 18V69Q401 29 359.0 6.5Q317 -16 267 -16Q200 -16 147.0 16.0Q94 48 64.0 105.0Q34 162 34 235Q34 307 63.5 363.5Q93 420 145.5 452.0Q198 484 265 484Q316 484 358.5 461.5Q401 439 430 398V468ZM430 234Q430 288 409.0 331.0Q388 374 350.5 398.0Q313 422 265 422Q218 422 181.0 398.0Q144 374 123.0 331.5Q102 289 102 235Q102 180 123.0 137.0Q144 94 181.0 70.0Q218 46 265 46Q313 46 350.5 70.0Q388 94 409.0 137.0Q430 180 430 234Z M649 0V406H569V468H649V623H717V468H825V406H717V0Z M1310 468V0H1242V78Q1218 33 1178.5 8.5Q1139 -16 1087 -16Q1038 -16 996.5 4.0Q955 24 930.5 63.0Q906 102 906 155V468H974V185Q974 46 1098 46Q1170 46 1206.0 97.0Q1242 148 1242 234V468Z M1840 313V0H1772V283Q1772 422 1648 422Q1576 422 1540.0 371.0Q1504 320 1504 234V0H1436V468H1504V390Q1528 435 1567.5 459.5Q1607 484 1659 484Q1708 484 1749.5 464.0Q1791 444 1815.5 405.0Q1840 366 1840 313Z M2398 249Q2398 230 2397 220H2012Q2016 148 2059.0 97.0Q2102 46 2176 46Q2236 46 2275.5 68.5Q2315 91 2339 131L2393 95Q2360 43 2306.0 13.5Q2252 -16 2178 -16Q2110 -16 2057.0 16.0Q2004 48 1974.0 105.0Q1944 162 1944 234Q1944 306 1973.5 363.0Q2003 420 2055.5 452.0Q2108 484 2175 484Q2238 484 2289.0 453.0Q2340 422 2369.0 368.5Q2398 315 2398 249ZM2330 276Q2320 349 2281.0 385.5Q2242 422 2175 422Q2110 422 2068.5 380.5Q2027 339 2016 276Z M2774 477V415Q2753 425 2728 425Q2685 425 2648.0 401.0Q2611 377 2588.5 331.5Q2566 286 2566 224V0H2498V468H2566V374Q2593 426 2634.5 455.0Q2676 484 2728 484Q2752 484 2774 477Z"/>
    <polygon points="184.67,177.33 267.07,336.03 343.37,177.33" fill="#e74c3c"/>
  </g>
</svg>
